<?xml version="1.0" standalone="no"?>
<!-- Generator: Paintmaps.com , Online SVG vector map maker -->
<svg xmlns="http://www.w3.org/2000/svg" version="1.1" baseProfile="full" width="800" height="533" style="background-color:#e0f2f1">
<rect width="100%" height="100%" fill="#e0f2f1"/>
<path d="M 0 0 L 800 0 L 800 533 L 0 533 L 0 0 Z" fill="rgba(255, 255, 255, 0.8)" fill-opacity="1" stroke="none" clip-path="none"/>
<path d="M 399.9984 256.5 A 10 10 0 0 1 406.4072 258.8222" fill="none" stroke="#c23531" stroke-width="5" paint-order="fill" stroke-opacity="1" stroke-dasharray="" stroke-linecap="round" stroke-linejoin="miter" stroke-miterlimit="10" clip-path="none"/>
<path d="M 390 256.5 L 410 256.5 L 410 276.5 L 390 276.5 L 390 256.5 Z" fill="none" stroke="none" clip-path="none"/>
<text transform="matrix(1,0,0,1,0,0)" fill="#000" fill-opacity="1" stroke="none" clip-path="none" style="font: 12px sans-serif;"><tspan dominant-baseline="middle" text-anchor="start" x="420" y="266.5">loading</tspan></text>
<text transform="matrix(1 0 0 1 437.8187 430.8289)" style="font-family:'Tahoma'; font-size:13px;" class="maplabels1">Nicobar Islands</text>
<text transform="matrix(1 0 0 1 413.7142 137.2467)" style="font-family:'Tahoma'; font-size:13px;" class="maplabels1">North and Middle Andaman</text>
<text transform="matrix(1 0 0 1 411.218 246.7261)" style="font-family:'Tahoma'; font-size:13px;" class="maplabels1">South Andaman</text>
<text x="643" y="519.33333333333" font-size="11">Created with paintmaps.com</text>
</svg>