<?xml version="1.0" standalone="no"?>
<!-- Generator: Paintmaps.com , Online SVG vector map maker -->
<svg xmlns="http://www.w3.org/2000/svg" version="1.1" baseProfile="full" width="800" height="533" style="background-color:#e0f2f1">
<rect width="100%" height="100%" fill="#e0f2f1"/>
<path d="M 713.7866 343.4653 L 712.546 343.2339 L 711.0578 342.3639 L 707.8143 342.5371 L 705.8842 341.719 L 698.3799 341.9852 L 697.0956 344.0958 L 695.5564 344.935 L 693.9783 343.102 L 694.0585 343.1279 L 693.9783 343.03 L 693.8885 343.03 L 693.8885 342.9118 L 693.9783 342.9142 L 693.9783 342.3211 L 694.0633 342.3211 L 694.0633 341.969 L 694.1531 341.969 L 694.1531 341.7319 L 694.2405 341.7319 L 694.2405 341.498 L 694.3304 341.498 L 694.3304 341.2609 L 694.4153 341.2609 L 694.4153 340.9081 L 694.5076 340.9089 L 694.5076 340.5552 L 694.595 340.5552 L 694.595 340.0834 L 694.6848 340.0851 L 694.6848 339.729 L 694.7722 339.7306 L 694.7722 339.3762 L 694.8596 339.377 L 694.8596 339.139 L 694.9495 339.1398 L 694.9495 338.7878 L 695.0369 338.7878 L 695.0369 338.4334 L 695.1267 338.4358 L 695.1267 338.1971 L 695.2141 338.1971 L 695.2141 337.8442 L 695.3015 337.8499 L 695.3015 337.6079 L 695.3913 337.6087 L 695.3913 337.3732 L 695.4787 337.3732 L 695.4787 337.1369 L 695.5685 337.1369 L 695.5685 336.9014 L 695.6559 336.9014 L 695.6584 336.4321 L 695.7433 336.4296 L 695.7433 336.1941 L 695.9206 336.1949 L 695.9206 336.076 L 696.0104 336.0768 L 696.0104 335.7231 L 695.9206 335.724 L 695.9206 335.486 L 695.8332 335.486 L 695.8332 335.015 L 695.9206 335.0159 L 695.9206 334.7804 L 696.0104 334.7804 L 696.0104 334.1904 L 696.0978 334.1904 L 696.0978 333.1303 L 696.1876 333.1311 L 696.1876 330.6531 L 696.275 330.6547 L 696.275 329.3583 L 696.1876 329.3591 L 696.1876 328.651 L 696.275 328.651 L 696.275 328.1808 L 696.3624 328.1808 L 696.3624 327.8264 L 696.4523 327.8264 L 696.4523 327.3554 L 696.5397 327.3554 L 696.5397 327.238 L 696.6271 327.2389 L 696.6271 327.0001 L 696.7169 327.0017 L 696.7169 326.7654 L 696.8019 326.7671 L 696.8019 326.6473 L 696.8941 326.6473 L 696.8941 326.5283 L 696.9815 326.5283 L 696.9815 326.411 L 697.0713 326.4118 L 697.0713 326.0679 L 697.0713 325.469 L 696.8941 325.469 L 696.8941 325.2335 L 696.8043 325.2335 L 696.8043 325.1154 L 696.7169 325.1162 L 696.7169 324.998 L 696.6295 324.998 L 696.6295 324.7625 L 696.5397 324.7641 L 696.5397 324.2891 L 696.4523 324.2891 L 696.4523 321.8168 L 696.3624 321.8168 L 696.3624 319.9304 L 696.275 319.9296 L 696.275 318.2803 L 696.1876 318.2811 L 696.1876 318.1622 L 696.0978 318.1622 L 696.0978 317.2194 L 696.1876 317.2202 L 696.1876 316.5129 L 696.275 316.5129 L 696.275 316.2742 L 696.3649 316.2742 L 696.3649 315.9221 L 696.4523 315.9221 L 696.4523 315.4504 L 696.5397 315.4504 L 696.5397 315.0975 L 696.6271 315.0991 L 696.6271 314.3902 L 696.7169 314.391 L 696.7169 314.0366 L 696.8019 314.0374 L 696.8019 313.6821 L 696.8941 313.6837 L 696.8941 313.4482 L 696.9815 313.449 L 696.9815 313.2111 L 697.0713 313.2119 L 697.0713 312.9764 L 697.1587 312.9781 L 697.1587 312.7401 L 697.2461 312.7409 L 697.2461 312.3873 L 697.3335 312.3881 L 697.3335 312.1502 L 697.4234 312.1502 L 697.4234 311.7982 L 697.5132 311.7982 L 697.5132 311.3264 L 697.6006 311.3272 L 697.6006 311.2082 L 697.7778 311.2082 L 697.7778 311.0909 L 697.8652 311.0909 L 697.8652 310.9727 L 697.9551 310.9751 L 697.9551 310.738 L 698.1323 310.738 L 698.1323 310.5001 L 698.2197 310.5017 L 698.2197 310.3836 L 698.3071 310.3852 L 698.3071 310.1473 L 698.3969 310.1473 L 698.3969 310.0283 L 698.4843 310.0291 L 698.4843 309.6763 L 698.5766 309.6763 L 698.5766 309.5573 L 698.6615 309.5573 L 698.6615 309.4392 L 698.7489 309.4408 L 698.7489 309.0871 L 698.8363 309.0871 L 698.8363 308.9682 L 698.9262 308.9682 L 698.9262 308.8492 L 699.0136 308.8492 L 699.016 308.6161 L 699.1034 308.6161 L 699.1034 308.4972 L 699.1908 308.498 L 699.1908 308.2625 L 699.2806 308.2625 L 699.2806 308.1443 L 699.368 308.1452 L 699.368 308.0262 L 699.5453 308.0262 L 699.5453 307.9072 L 699.6327 307.9072 L 699.6327 307.7891 L 699.7201 307.7891 L 699.7201 307.5552 L 699.8997 307.5552 L 699.8997 307.4362 L 699.9871 307.4362 L 699.9871 307.3181 L 700.0769 307.3181 L 700.0769 307.1991 L 700.1643 307.2016 L 700.1643 307.0834 L 700.2493 307.0842 L 700.2517 306.9653 L 700.3416 306.9661 L 700.3416 306.924 L 700.3416 306.8471 L 700.3853 306.8479 L 700.429 306.8479 L 700.429 306.7751 L 700.4265 306.7281 L 700.463 306.7298 L 700.5188 306.7306 L 700.5188 306.6124 L 700.6062 306.6132 L 700.6062 306.4943 L 700.6936 306.4943 L 700.6936 306.3292 L 700.6936 306.2571 L 700.7349 306.2588 L 700.7834 306.2588 L 700.7834 306.1406 L 700.9606 306.1406 L 700.9606 306.0233 L 701.133 306.0241 L 701.133 305.787 L 701.2253 305.7878 L 701.2253 305.6696 L 701.3127 305.6696 L 701.3127 305.5515 L 701.5773 305.5515 L 701.5773 305.4333 L 701.7545 305.4333 L 701.7545 305.5515 L 701.8444 305.5531 L 701.8444 305.316 L 702.0192 305.316 L 702.0216 305.1962 L 702.2862 305.1962 L 702.2862 305.0781 L 702.3736 305.0797 L 702.3736 304.9623 L 702.5508 304.9631 L 702.5508 304.845 L 702.7281 304.845 L 702.7281 304.7252 L 702.8155 304.7268 L 702.8155 304.6087 L 702.9927 304.6087 L 702.9927 304.4905 L 703.0801 304.493 L 703.0801 304.2542 L 703.1699 304.2542 L 703.1699 304.1353 L 703.4346 304.1369 L 703.4346 304.0195 L 703.522 304.0195 L 703.522 303.9014 L 703.6992 303.9014 L 703.6992 304.0195 L 703.789 304.0195 L 703.789 303.9014 L 703.9638 303.9014 L 703.9638 303.7824 L 704.0561 303.7824 L 704.0561 303.6643 L 704.141 303.6659 L 704.141 303.4312 L 704.2309 303.4312 L 704.2309 303.3082 L 704.3183 303.3082 L 704.3183 303.1941 L 704.4081 303.1941 L 704.4081 302.9586 L 704.6727 302.9586 L 704.6727 302.8396 L 704.9374 302.8396 L 704.9374 302.9586 L 705.0248 302.9586 L 705.0248 303.0768 L 705.1996 303.0751 L 705.1996 303.1941 L 705.2918 303.1941 L 705.2918 303.3082 L 705.8211 303.3082 L 705.8211 303.4312 L 705.906 303.4312 L 705.906 303.3082 L 705.9983 303.3082 L 705.9983 303.0751 L 705.9085 303.0768 L 705.9085 302.9586 L 705.8211 302.9586 L 705.8211 302.8396 L 705.7312 302.8404 L 705.7312 302.4852 L 705.8211 302.4868 L 705.8211 302.3686 L 705.906 302.3703 L 705.906 302.1332 L 705.9983 302.1332 L 705.9983 301.8952 L 706.0857 301.8952 L 706.0857 301.6622 L 706.1755 301.6622 L 706.1755 300.9532 L 706.2629 300.9557 L 706.2629 300.7242 L 707.302 301.6241 L 708.0959 302.1882 L 708.2586 303.3818 L 710.764 304.1158 L 713.3739 304.2008 L 714.379 305.7692 L 714.952 308.2042 L 715.7677 310.1011 L 716.8311 311.5748 L 716.6587 313.1521 L 715.3768 314.2187 L 714.1362 313.8343 L 711.6429 311.8993 L 710.4848 312.0749 L 708.8 316.2313 L 706.7121 318.795 L 706.0032 320.4904 L 706.3188 322.5095 L 707.8434 323.9686 L 709.0427 324.1175 L 712.4441 322.9959 L 715.4132 322.7224 L 717.6225 321.7691 L 718.8291 322.6795 L 719.7784 324.3652 L 719.9993 326.4458 L 719.0816 328.5968 L 715.6099 331.5611 L 714.5951 333.6458 L 714.765 336.2702 L 715.3623 337.5351 L 717.5618 339.1633 L 717.7949 340.7195 L 716.8942 342.6496 L 713.7866 343.4653 Z" fill="#000" fill-opacity="1" stroke="#000" stroke-width="0" paint-order="fill" stroke-opacity="1" stroke-dasharray="" stroke-linecap="butt" stroke-linejoin="miter" stroke-miterlimit="10" transform="matrix(0.8999999761581421,0,0,0.8999999761581421,39.999942779541016,26.64996337890625)" clip-path="none" style="filter: url(#f1)"/>
<path d="M 102.4515 191.0799 L 102.4515 191.2288 L 102.3617 191.2288 L 102.3617 191.4667 L 102.2743 191.4659 L 102.2743 191.7014 L 102.1844 191.6998 L 102.1844 192.0567 L 102.097 192.055 L 102.097 192.526 L 102.0096 192.526 L 102.0096 193.7051 L 102.097 193.7051 L 102.097 193.9406 L 102.1844 193.9398 L 102.1844 194.0588 L 102.2743 194.0588 L 102.2743 194.1777 L 102.3641 194.1753 L 102.3641 194.2943 L 102.5365 194.2926 L 102.5365 194.4108 L 102.7161 194.4108 L 102.7161 194.2926 L 102.8059 194.2926 L 102.8059 194.4108 L 102.8933 194.4108 L 102.8933 194.2926 L 103.2478 194.2943 L 103.2478 194.1753 L 103.3352 194.1777 L 103.3352 193.8217 L 102.7161 193.8225 L 102.7161 193.7051 L 102.5389 193.7051 L 102.5389 193.587 L 102.4515 193.5878 L 102.4515 192.8797 L 102.5389 192.8797 L 102.5389 192.6442 L 102.6287 192.6442 L 102.6287 192.526 L 102.7161 192.5268 L 102.7161 192.2905 L 102.8059 192.2913 L 102.8059 192.1732 L 102.8933 192.1732 L 102.8933 192.055 L 102.9807 192.055 L 102.9807 191.9369 L 103.0681 191.9377 L 103.0681 191.8195 L 103.158 191.8195 L 103.158 191.6998 L 103.2478 191.6998 L 103.2478 191.5808 L 103.3352 191.5832 L 103.3352 191.4659 L 104.0417 191.4659 L 104.0417 191.5832 L 104.2189 191.5808 L 104.2189 191.6998 L 104.4811 191.6998 L 104.4811 191.8195 L 105.0176 191.8195 L 105.0176 192.0567 L 105.3672 192.055 L 105.3672 192.1732 L 105.5445 192.1732 L 105.5445 192.2913 L 105.7241 192.2905 L 105.7241 192.4087 L 105.9863 192.4087 L 105.9839 192.5268 L 106.2534 192.526 L 106.2534 192.6442 L 106.518 192.6442 L 106.518 192.7623 L 106.6054 192.7615 L 106.6054 192.8797 L 106.6977 192.8797 L 106.6952 192.9978 L 106.7826 192.9978 L 106.7826 193.2317 L 106.8676 193.2317 L 106.8676 193.3507 L 106.9574 193.3507 L 106.9574 193.4688 L 107.0473 193.4688 L 107.0473 193.7067 L 107.1371 193.7051 L 107.1371 193.8225 L 107.2245 193.8217 L 107.2245 193.9398 L 107.3119 193.9398 L 107.3119 194.0588 L 107.4042 194.0588 L 107.4017 194.1753 L 107.579 194.1753 L 107.579 194.2943 L 107.6664 194.2926 L 107.6664 194.4108 L 107.7562 194.4108 L 107.7562 194.5298 L 107.8412 194.5298 L 107.8412 194.7677 L 107.931 194.7661 L 107.931 194.8834 L 108.4627 194.8818 L 108.4627 195.0008 L 108.7273 195.0008 L 108.7273 195.1197 L 109.0793 195.1197 L 109.0793 195.0008 L 109.8756 195.0008 L 109.8756 195.1197 L 109.9655 195.1181 L 109.9655 195.2371 L 110.0529 195.2371 L 110.0529 195.3552 L 110.4073 195.3528 L 110.4073 195.4717 L 111.0264 195.4717 L 111.0264 195.5899 L 111.2036 195.5899 L 111.2012 195.708 L 111.3784 195.708 L 111.3784 195.8262 L 111.4658 195.8238 L 111.4658 195.9427 L 111.5557 195.9427 L 111.5557 196.1807 L 111.6455 196.1807 L 111.6455 196.2988 L 111.8203 196.2988 L 111.8203 196.4153 L 112.1723 196.4137 L 112.1723 196.5319 L 112.4394 196.5319 L 112.4394 196.6516 L 113.4153 196.6516 L 113.4129 196.769 L 113.5003 196.769 L 113.5003 196.8871 L 113.5901 196.8871 L 113.5901 197.4277 L 113.5901 197.5944 L 113.5003 197.5928 L 113.5003 197.8307 L 113.4129 197.8299 L 113.4129 197.9481 L 113.3231 197.9481 L 113.3231 198.0654 L 113.1459 198.0638 L 113.1459 198.3017 L 113.0585 198.3017 L 113.0585 198.4207 L 112.7938 198.4191 L 112.7938 198.5372 L 112.7089 198.5348 L 112.7089 198.7727 L 112.6166 198.7727 L 112.6166 198.8917 L 112.5292 198.8909 L 112.5292 199.0082 L 112.2622 199.0058 L 112.2622 199.1247 L 112.0873 199.1247 L 112.0873 199.2437 L 111.6455 199.2437 L 111.6455 199.3627 L 111.291 199.3619 L 111.291 199.5974 L 111.2012 199.5974 L 111.2012 199.7155 L 111.1138 199.7147 L 111.1138 199.8337 L 111.0264 199.8337 L 111.0264 199.9567 L 110.8492 199.9567 L 110.8492 199.8337 L 110.7569 199.8337 L 110.7569 199.7147 L 110.672 199.7155 L 110.672 199.5974 L 110.4947 199.5974 L 110.4947 199.48 L 110.1427 199.48 L 110.1427 199.5974 L 109.7882 199.5974 L 109.7882 199.7155 L 109.611 199.7147 L 109.611 199.9567 L 109.5236 199.9518 L 109.5236 200.1873 L 109.4338 200.1857 L 109.4338 200.3047 L 109.0793 200.3047 L 109.0793 200.4228 L 108.6399 200.4228 L 108.6399 200.541 L 108.4627 200.5401 L 108.4627 200.6583 L 108.2854 200.6567 L 108.2854 200.7756 L 108.1106 200.7756 L 108.1106 200.8938 L 108.0208 200.8938 L 108.0208 201.0119 L 107.7562 201.0119 L 107.7562 201.1301 L 107.6664 201.1301 L 107.6664 201.2474 L 107.579 201.2466 L 107.579 201.6027 L 107.4891 201.6011 L 107.4891 201.7192 L 107.4042 201.7176 L 107.4042 201.835 L 107.3119 201.835 L 107.3119 201.9539 L 107.2245 201.9539 L 107.2245 202.0737 L 107.1371 202.0737 L 107.1371 202.6758 L 107.1371 202.7802 L 107.0473 202.7777 L 107.0473 202.8967 L 106.7826 202.8967 L 106.7826 202.7777 L 106.6952 202.7802 L 106.6952 202.7098 L 106.6952 202.662 L 106.6054 202.6636 L 106.6054 202.3068 L 106.6952 202.3084 L 106.6952 202.191 L 106.7826 202.1927 L 106.7826 201.835 L 106.1611 201.835 L 106.1611 201.9539 L 105.7241 201.9539 L 105.7241 201.835 L 105.6343 201.8374 L 105.6343 201.6011 L 105.5445 201.6011 L 105.5445 201.7192 L 105.4546 201.7176 L 105.4546 201.835 L 105.2798 201.835 L 105.2798 201.7176 L 105.0152 201.7192 L 105.0152 201.6011 L 104.9254 201.6027 L 104.9254 201.4829 L 104.7482 201.4829 L 104.7482 201.2466 L 104.838 201.2482 L 104.838 201.1301 L 104.9254 201.1317 L 104.9254 200.6567 L 104.838 200.6583 L 104.838 200.5401 L 103.9543 200.5401 L 103.9543 200.6583 L 103.7746 200.6567 L 103.7746 200.7756 L 103.5998 200.7756 L 103.5998 200.8938 L 103.5124 200.8938 L 103.5124 201.0119 L 103.425 201.0119 L 103.4226 201.1301 L 103.3352 201.1301 L 103.3352 201.2474 L 102.8933 201.2474 L 102.8933 201.1301 L 102.3617 201.1317 L 102.3617 200.8938 L 102.0922 200.8938 L 102.0922 200.7756 L 101.745 200.7756 L 101.745 200.6567 L 101.6552 200.6567 L 101.6552 200.8938 L 101.5678 200.8938 L 101.5678 201.0119 L 101.3031 201.0119 L 101.3031 201.1301 L 100.9487 201.1301 L 100.9487 201.2474 L 100.8953 201.2482 L 100.8613 201.2466 L 100.8613 201.3648 L 100.7715 201.3648 L 100.7715 201.4829 L 100.5942 201.4829 L 100.5942 201.6027 L 100.4194 201.6011 L 100.4194 201.7192 L 100.3296 201.7176 L 100.3296 201.835 L 100.1499 201.835 L 100.1499 201.9539 L 99.0065 201.9539 L 99.0065 201.835 L 98.737 201.835 L 98.737 201.7176 L 98.5622 201.7192 L 98.5622 201.6011 L 98.3849 201.6027 L 98.3849 201.4829 L 98.0329 201.4829 L 98.0329 201.3648 L 97.6785 201.3648 L 97.6785 201.2466 L 97.1468 201.2474 L 97.1468 201.1301 L 96.4403 201.1301 L 96.4403 201.0119 L 96.2631 201.0119 L 96.2631 200.8938 L 95.9984 200.8938 L 95.9984 200.7756 L 95.7338 200.7756 L 95.7338 200.6567 L 95.5566 200.6583 L 95.5566 200.5401 L 95.0273 200.541 L 95.0273 200.4228 L 94.9375 200.4228 L 94.9375 200.3047 L 94.8501 200.3047 L 94.8501 200.1857 L 94.7603 200.1873 L 94.7603 200.0692 L 94.5855 200.0708 L 94.5855 199.7147 L 94.4956 199.7155 L 94.4956 199.5974 L 94.4082 199.5974 L 94.4082 199.48 L 94.3184 199.48 L 94.3184 199.3619 L 94.1436 199.3627 L 94.1436 199.2437 L 93.9639 199.2437 L 93.9639 199.1247 L 93.7892 199.1247 L 93.7892 199.0058 L 93.5245 199.0082 L 93.5245 198.8909 L 92.9904 198.8917 L 92.9928 198.7727 L 92.6432 198.7727 L 92.6432 198.6538 L 91.8445 198.6538 L 91.8445 198.5348 L 90.5189 198.5348 L 90.5189 198.6538 L 89.9872 198.6538 L 89.9872 198.7727 L 89.7202 198.7727 L 89.7202 198.8917 L 89.458 198.8909 L 89.458 199.0082 L 89.0161 199.0058 L 89.0161 199.1247 L 88.6592 199.1247 L 88.6592 199.2437 L 88.4844 199.2437 L 88.4844 199.3627 L 88.397 199.3619 L 88.397 199.48 L 88.1324 199.48 L 88.1324 199.5974 L 88.0426 199.5974 L 88.0426 199.8337 L 87.9528 199.8337 L 87.9528 199.9567 L 87.778 199.9518 L 87.778 200.0692 L 87.6906 200.0692 L 87.6906 200.3047 L 87.6007 200.3047 L 87.6007 200.7756 L 87.5158 200.7756 L 87.5158 201.1317 L 87.4235 201.1301 L 87.4235 201.4829 L 87.5158 201.4829 L 87.5133 202.0737 L 87.6007 202.0737 L 87.6007 202.4265 L 87.6906 202.4217 L 87.6906 202.5455 L 88.3096 202.5455 L 88.3096 202.6636 L 88.2198 202.662 L 88.2198 202.8967 L 87.9528 202.8967 L 87.9528 203.0165 L 87.778 203.0165 L 87.778 203.1346 L 87.5133 203.1338 L 87.5133 203.2512 L 87.4235 203.2487 L 87.4235 203.3677 L 87.3361 203.3677 L 87.3361 203.4875 L 87.2463 203.4875 L 87.2463 203.6056 L 87.0715 203.6048 L 87.0715 203.723 L 86.9792 203.7197 L 86.9792 203.9577 L 86.5398 203.9577 L 86.5398 203.8387 L 86.2727 203.8387 L 86.2727 203.3677 L 86.1878 203.3693 L 86.1878 202.9008 L 86.1878 202.7777 L 85.9037 202.7777 L 85.7459 202.7777 L 85.7459 202.8967 L 85.6561 202.8967 L 85.6561 203.1346 L 85.4789 203.1338 L 85.4789 203.2512 L 84.952 203.2487 L 84.952 203.3677 L 84.8598 203.3677 L 84.8598 203.2487 L 84.5077 203.2487 L 84.5077 203.3677 L 84.1533 203.3677 L 84.1533 203.4875 L 83.624 203.4875 L 83.624 203.6056 L 83.3594 203.6048 L 83.3594 203.723 L 83.0025 203.7197 L 83.0025 203.8387 L 82.9175 203.8387 L 82.9175 203.9577 L 82.5631 203.9577 L 82.5631 204.0766 L 82.2985 204.0766 L 82.2985 203.9577 L 82.2062 203.9577 L 82.2062 203.8387 L 82.1212 203.8387 L 82.1212 203.7197 L 82.0338 203.723 L 82.0338 203.6048 L 81.8566 203.6056 L 81.8566 203.4875 L 81.6794 203.4875 L 81.6794 203.3677 L 81.592 203.3693 L 81.592 203.1338 L 81.6794 203.1346 L 81.6794 203.0165 L 81.7668 203.0165 L 81.7668 202.662 L 81.8566 202.6636 L 81.8566 201.9539 L 81.7668 201.9539 L 81.7668 201.7176 L 81.6794 201.7176 L 81.6794 201.4829 L 81.4147 201.4829 L 81.4147 201.3648 L 81.3249 201.3656 L 81.3249 201.1301 L 81.2375 201.1301 L 81.2375 201.0119 L 81.172 201.0119 L 81.0603 201.0119 L 81.0603 200.8938 L 80.9729 200.8938 L 80.9729 200.7756 L 80.8831 200.7756 L 80.8831 200.6567 L 80.7957 200.6583 L 80.7957 200.5401 L 80.7058 200.541 L 80.7058 200.4228 L 80.531 200.4228 L 80.531 200.3047 L 80.2615 200.3047 L 80.2615 200.1857 L 79.9993 200.1873 L 79.9993 200.0708 L 80.2785 198.0217 L 81.5313 195.0598 L 82.4077 193.4097 L 84.0707 192.2905 L 89.1812 191.2798 L 91.9562 190.0028 L 93.3497 188.2928 L 94.8962 188.0646 L 97.9674 189.2299 L 102.2597 191.1527 L 102.4515 191.0799 Z" fill="#000" fill-opacity="1" stroke="#000" stroke-width="0" paint-order="fill" stroke-opacity="1" stroke-dasharray="" stroke-linecap="butt" stroke-linejoin="miter" stroke-miterlimit="10" transform="matrix(0.8999999761581421,0,0,0.8999999761581421,39.999942779541016,26.64996337890625)" clip-path="none" style="filter: url(#f1)"/>
<path d="M 713.7866 343.4653 L 712.546 343.2339 L 711.0578 342.3639 L 707.8143 342.5371 L 705.8842 341.719 L 698.3799 341.9852 L 697.0956 344.0958 L 695.5564 344.935 L 693.9783 343.102 L 694.0585 343.1279 L 693.9783 343.03 L 693.8885 343.03 L 693.8885 342.9118 L 693.9783 342.9142 L 693.9783 342.3211 L 694.0633 342.3211 L 694.0633 341.969 L 694.1531 341.969 L 694.1531 341.7319 L 694.2405 341.7319 L 694.2405 341.498 L 694.3304 341.498 L 694.3304 341.2609 L 694.4153 341.2609 L 694.4153 340.9081 L 694.5076 340.9089 L 694.5076 340.5552 L 694.595 340.5552 L 694.595 340.0834 L 694.6848 340.0851 L 694.6848 339.729 L 694.7722 339.7306 L 694.7722 339.3762 L 694.8596 339.377 L 694.8596 339.139 L 694.9495 339.1398 L 694.9495 338.7878 L 695.0369 338.7878 L 695.0369 338.4334 L 695.1267 338.4358 L 695.1267 338.1971 L 695.2141 338.1971 L 695.2141 337.8442 L 695.3015 337.8499 L 695.3015 337.6079 L 695.3913 337.6087 L 695.3913 337.3732 L 695.4787 337.3732 L 695.4787 337.1369 L 695.5685 337.1369 L 695.5685 336.9014 L 695.6559 336.9014 L 695.6584 336.4321 L 695.7433 336.4296 L 695.7433 336.1941 L 695.9206 336.1949 L 695.9206 336.076 L 696.0104 336.0768 L 696.0104 335.7231 L 695.9206 335.724 L 695.9206 335.486 L 695.8332 335.486 L 695.8332 335.015 L 695.9206 335.0159 L 695.9206 334.7804 L 696.0104 334.7804 L 696.0104 334.1904 L 696.0978 334.1904 L 696.0978 333.1303 L 696.1876 333.1311 L 696.1876 330.6531 L 696.275 330.6547 L 696.275 329.3583 L 696.1876 329.3591 L 696.1876 328.651 L 696.275 328.651 L 696.275 328.1808 L 696.3624 328.1808 L 696.3624 327.8264 L 696.4523 327.8264 L 696.4523 327.3554 L 696.5397 327.3554 L 696.5397 327.238 L 696.6271 327.2389 L 696.6271 327.0001 L 696.7169 327.0017 L 696.7169 326.7654 L 696.8019 326.7671 L 696.8019 326.6473 L 696.8941 326.6473 L 696.8941 326.5283 L 696.9815 326.5283 L 696.9815 326.411 L 697.0713 326.4118 L 697.0713 326.0679 L 697.0713 325.469 L 696.8941 325.469 L 696.8941 325.2335 L 696.8043 325.2335 L 696.8043 325.1154 L 696.7169 325.1162 L 696.7169 324.998 L 696.6295 324.998 L 696.6295 324.7625 L 696.5397 324.7641 L 696.5397 324.2891 L 696.4523 324.2891 L 696.4523 321.8168 L 696.3624 321.8168 L 696.3624 319.9304 L 696.275 319.9296 L 696.275 318.2803 L 696.1876 318.2811 L 696.1876 318.1622 L 696.0978 318.1622 L 696.0978 317.2194 L 696.1876 317.2202 L 696.1876 316.5129 L 696.275 316.5129 L 696.275 316.2742 L 696.3649 316.2742 L 696.3649 315.9221 L 696.4523 315.9221 L 696.4523 315.4504 L 696.5397 315.4504 L 696.5397 315.0975 L 696.6271 315.0991 L 696.6271 314.3902 L 696.7169 314.391 L 696.7169 314.0366 L 696.8019 314.0374 L 696.8019 313.6821 L 696.8941 313.6837 L 696.8941 313.4482 L 696.9815 313.449 L 696.9815 313.2111 L 697.0713 313.2119 L 697.0713 312.9764 L 697.1587 312.9781 L 697.1587 312.7401 L 697.2461 312.7409 L 697.2461 312.3873 L 697.3335 312.3881 L 697.3335 312.1502 L 697.4234 312.1502 L 697.4234 311.7982 L 697.5132 311.7982 L 697.5132 311.3264 L 697.6006 311.3272 L 697.6006 311.2082 L 697.7778 311.2082 L 697.7778 311.0909 L 697.8652 311.0909 L 697.8652 310.9727 L 697.9551 310.9751 L 697.9551 310.738 L 698.1323 310.738 L 698.1323 310.5001 L 698.2197 310.5017 L 698.2197 310.3836 L 698.3071 310.3852 L 698.3071 310.1473 L 698.3969 310.1473 L 698.3969 310.0283 L 698.4843 310.0291 L 698.4843 309.6763 L 698.5766 309.6763 L 698.5766 309.5573 L 698.6615 309.5573 L 698.6615 309.4392 L 698.7489 309.4408 L 698.7489 309.0871 L 698.8363 309.0871 L 698.8363 308.9682 L 698.9262 308.9682 L 698.9262 308.8492 L 699.0136 308.8492 L 699.016 308.6161 L 699.1034 308.6161 L 699.1034 308.4972 L 699.1908 308.498 L 699.1908 308.2625 L 699.2806 308.2625 L 699.2806 308.1443 L 699.368 308.1452 L 699.368 308.0262 L 699.5453 308.0262 L 699.5453 307.9072 L 699.6327 307.9072 L 699.6327 307.7891 L 699.7201 307.7891 L 699.7201 307.5552 L 699.8997 307.5552 L 699.8997 307.4362 L 699.9871 307.4362 L 699.9871 307.3181 L 700.0769 307.3181 L 700.0769 307.1991 L 700.1643 307.2016 L 700.1643 307.0834 L 700.2493 307.0842 L 700.2517 306.9653 L 700.3416 306.9661 L 700.3416 306.924 L 700.3416 306.8471 L 700.3853 306.8479 L 700.429 306.8479 L 700.429 306.7751 L 700.4265 306.7281 L 700.463 306.7298 L 700.5188 306.7306 L 700.5188 306.6124 L 700.6062 306.6132 L 700.6062 306.4943 L 700.6936 306.4943 L 700.6936 306.3292 L 700.6936 306.2571 L 700.7349 306.2588 L 700.7834 306.2588 L 700.7834 306.1406 L 700.9606 306.1406 L 700.9606 306.0233 L 701.133 306.0241 L 701.133 305.787 L 701.2253 305.7878 L 701.2253 305.6696 L 701.3127 305.6696 L 701.3127 305.5515 L 701.5773 305.5515 L 701.5773 305.4333 L 701.7545 305.4333 L 701.7545 305.5515 L 701.8444 305.5531 L 701.8444 305.316 L 702.0192 305.316 L 702.0216 305.1962 L 702.2862 305.1962 L 702.2862 305.0781 L 702.3736 305.0797 L 702.3736 304.9623 L 702.5508 304.9631 L 702.5508 304.845 L 702.7281 304.845 L 702.7281 304.7252 L 702.8155 304.7268 L 702.8155 304.6087 L 702.9927 304.6087 L 702.9927 304.4905 L 703.0801 304.493 L 703.0801 304.2542 L 703.1699 304.2542 L 703.1699 304.1353 L 703.4346 304.1369 L 703.4346 304.0195 L 703.522 304.0195 L 703.522 303.9014 L 703.6992 303.9014 L 703.6992 304.0195 L 703.789 304.0195 L 703.789 303.9014 L 703.9638 303.9014 L 703.9638 303.7824 L 704.0561 303.7824 L 704.0561 303.6643 L 704.141 303.6659 L 704.141 303.4312 L 704.2309 303.4312 L 704.2309 303.3082 L 704.3183 303.3082 L 704.3183 303.1941 L 704.4081 303.1941 L 704.4081 302.9586 L 704.6727 302.9586 L 704.6727 302.8396 L 704.9374 302.8396 L 704.9374 302.9586 L 705.0248 302.9586 L 705.0248 303.0768 L 705.1996 303.0751 L 705.1996 303.1941 L 705.2918 303.1941 L 705.2918 303.3082 L 705.8211 303.3082 L 705.8211 303.4312 L 705.906 303.4312 L 705.906 303.3082 L 705.9983 303.3082 L 705.9983 303.0751 L 705.9085 303.0768 L 705.9085 302.9586 L 705.8211 302.9586 L 705.8211 302.8396 L 705.7312 302.8404 L 705.7312 302.4852 L 705.8211 302.4868 L 705.8211 302.3686 L 705.906 302.3703 L 705.906 302.1332 L 705.9983 302.1332 L 705.9983 301.8952 L 706.0857 301.8952 L 706.0857 301.6622 L 706.1755 301.6622 L 706.1755 300.9532 L 706.2629 300.9557 L 706.2629 300.7242 L 707.302 301.6241 L 708.0959 302.1882 L 708.2586 303.3818 L 710.764 304.1158 L 713.3739 304.2008 L 714.379 305.7692 L 714.952 308.2042 L 715.7677 310.1011 L 716.8311 311.5748 L 716.6587 313.1521 L 715.3768 314.2187 L 714.1362 313.8343 L 711.6429 311.8993 L 710.4848 312.0749 L 708.8 316.2313 L 706.7121 318.795 L 706.0032 320.4904 L 706.3188 322.5095 L 707.8434 323.9686 L 709.0427 324.1175 L 712.4441 322.9959 L 715.4132 322.7224 L 717.6225 321.7691 L 718.8291 322.6795 L 719.7784 324.3652 L 719.9993 326.4458 L 719.0816 328.5968 L 715.6099 331.5611 L 714.5951 333.6458 L 714.765 336.2702 L 715.3623 337.5351 L 717.5618 339.1633 L 717.7949 340.7195 L 716.8942 342.6496 L 713.7866 343.4653 Z" fill="#f6b9fd" fill-opacity="1" stroke="#000000" stroke-width="0.4444444562182018" paint-order="fill" stroke-opacity="1" stroke-dasharray="" stroke-linecap="butt" stroke-linejoin="miter" stroke-miterlimit="10" transform="matrix(0.8999999761581421,0,0,0.8999999761581421,39.999942779541016,26.64996337890625)" clip-path="none"/>
<path d="M 102.4515 191.0799 L 102.4515 191.2288 L 102.3617 191.2288 L 102.3617 191.4667 L 102.2743 191.4659 L 102.2743 191.7014 L 102.1844 191.6998 L 102.1844 192.0567 L 102.097 192.055 L 102.097 192.526 L 102.0096 192.526 L 102.0096 193.7051 L 102.097 193.7051 L 102.097 193.9406 L 102.1844 193.9398 L 102.1844 194.0588 L 102.2743 194.0588 L 102.2743 194.1777 L 102.3641 194.1753 L 102.3641 194.2943 L 102.5365 194.2926 L 102.5365 194.4108 L 102.7161 194.4108 L 102.7161 194.2926 L 102.8059 194.2926 L 102.8059 194.4108 L 102.8933 194.4108 L 102.8933 194.2926 L 103.2478 194.2943 L 103.2478 194.1753 L 103.3352 194.1777 L 103.3352 193.8217 L 102.7161 193.8225 L 102.7161 193.7051 L 102.5389 193.7051 L 102.5389 193.587 L 102.4515 193.5878 L 102.4515 192.8797 L 102.5389 192.8797 L 102.5389 192.6442 L 102.6287 192.6442 L 102.6287 192.526 L 102.7161 192.5268 L 102.7161 192.2905 L 102.8059 192.2913 L 102.8059 192.1732 L 102.8933 192.1732 L 102.8933 192.055 L 102.9807 192.055 L 102.9807 191.9369 L 103.0681 191.9377 L 103.0681 191.8195 L 103.158 191.8195 L 103.158 191.6998 L 103.2478 191.6998 L 103.2478 191.5808 L 103.3352 191.5832 L 103.3352 191.4659 L 104.0417 191.4659 L 104.0417 191.5832 L 104.2189 191.5808 L 104.2189 191.6998 L 104.4811 191.6998 L 104.4811 191.8195 L 105.0176 191.8195 L 105.0176 192.0567 L 105.3672 192.055 L 105.3672 192.1732 L 105.5445 192.1732 L 105.5445 192.2913 L 105.7241 192.2905 L 105.7241 192.4087 L 105.9863 192.4087 L 105.9839 192.5268 L 106.2534 192.526 L 106.2534 192.6442 L 106.518 192.6442 L 106.518 192.7623 L 106.6054 192.7615 L 106.6054 192.8797 L 106.6977 192.8797 L 106.6952 192.9978 L 106.7826 192.9978 L 106.7826 193.2317 L 106.8676 193.2317 L 106.8676 193.3507 L 106.9574 193.3507 L 106.9574 193.4688 L 107.0473 193.4688 L 107.0473 193.7067 L 107.1371 193.7051 L 107.1371 193.8225 L 107.2245 193.8217 L 107.2245 193.9398 L 107.3119 193.9398 L 107.3119 194.0588 L 107.4042 194.0588 L 107.4017 194.1753 L 107.579 194.1753 L 107.579 194.2943 L 107.6664 194.2926 L 107.6664 194.4108 L 107.7562 194.4108 L 107.7562 194.5298 L 107.8412 194.5298 L 107.8412 194.7677 L 107.931 194.7661 L 107.931 194.8834 L 108.4627 194.8818 L 108.4627 195.0008 L 108.7273 195.0008 L 108.7273 195.1197 L 109.0793 195.1197 L 109.0793 195.0008 L 109.8756 195.0008 L 109.8756 195.1197 L 109.9655 195.1181 L 109.9655 195.2371 L 110.0529 195.2371 L 110.0529 195.3552 L 110.4073 195.3528 L 110.4073 195.4717 L 111.0264 195.4717 L 111.0264 195.5899 L 111.2036 195.5899 L 111.2012 195.708 L 111.3784 195.708 L 111.3784 195.8262 L 111.4658 195.8238 L 111.4658 195.9427 L 111.5557 195.9427 L 111.5557 196.1807 L 111.6455 196.1807 L 111.6455 196.2988 L 111.8203 196.2988 L 111.8203 196.4153 L 112.1723 196.4137 L 112.1723 196.5319 L 112.4394 196.5319 L 112.4394 196.6516 L 113.4153 196.6516 L 113.4129 196.769 L 113.5003 196.769 L 113.5003 196.8871 L 113.5901 196.8871 L 113.5901 197.4277 L 113.5901 197.5944 L 113.5003 197.5928 L 113.5003 197.8307 L 113.4129 197.8299 L 113.4129 197.9481 L 113.3231 197.9481 L 113.3231 198.0654 L 113.1459 198.0638 L 113.1459 198.3017 L 113.0585 198.3017 L 113.0585 198.4207 L 112.7938 198.4191 L 112.7938 198.5372 L 112.7089 198.5348 L 112.7089 198.7727 L 112.6166 198.7727 L 112.6166 198.8917 L 112.5292 198.8909 L 112.5292 199.0082 L 112.2622 199.0058 L 112.2622 199.1247 L 112.0873 199.1247 L 112.0873 199.2437 L 111.6455 199.2437 L 111.6455 199.3627 L 111.291 199.3619 L 111.291 199.5974 L 111.2012 199.5974 L 111.2012 199.7155 L 111.1138 199.7147 L 111.1138 199.8337 L 111.0264 199.8337 L 111.0264 199.9567 L 110.8492 199.9567 L 110.8492 199.8337 L 110.7569 199.8337 L 110.7569 199.7147 L 110.672 199.7155 L 110.672 199.5974 L 110.4947 199.5974 L 110.4947 199.48 L 110.1427 199.48 L 110.1427 199.5974 L 109.7882 199.5974 L 109.7882 199.7155 L 109.611 199.7147 L 109.611 199.9567 L 109.5236 199.9518 L 109.5236 200.1873 L 109.4338 200.1857 L 109.4338 200.3047 L 109.0793 200.3047 L 109.0793 200.4228 L 108.6399 200.4228 L 108.6399 200.541 L 108.4627 200.5401 L 108.4627 200.6583 L 108.2854 200.6567 L 108.2854 200.7756 L 108.1106 200.7756 L 108.1106 200.8938 L 108.0208 200.8938 L 108.0208 201.0119 L 107.7562 201.0119 L 107.7562 201.1301 L 107.6664 201.1301 L 107.6664 201.2474 L 107.579 201.2466 L 107.579 201.6027 L 107.4891 201.6011 L 107.4891 201.7192 L 107.4042 201.7176 L 107.4042 201.835 L 107.3119 201.835 L 107.3119 201.9539 L 107.2245 201.9539 L 107.2245 202.0737 L 107.1371 202.0737 L 107.1371 202.6758 L 107.1371 202.7802 L 107.0473 202.7777 L 107.0473 202.8967 L 106.7826 202.8967 L 106.7826 202.7777 L 106.6952 202.7802 L 106.6952 202.7098 L 106.6952 202.662 L 106.6054 202.6636 L 106.6054 202.3068 L 106.6952 202.3084 L 106.6952 202.191 L 106.7826 202.1927 L 106.7826 201.835 L 106.1611 201.835 L 106.1611 201.9539 L 105.7241 201.9539 L 105.7241 201.835 L 105.6343 201.8374 L 105.6343 201.6011 L 105.5445 201.6011 L 105.5445 201.7192 L 105.4546 201.7176 L 105.4546 201.835 L 105.2798 201.835 L 105.2798 201.7176 L 105.0152 201.7192 L 105.0152 201.6011 L 104.9254 201.6027 L 104.9254 201.4829 L 104.7482 201.4829 L 104.7482 201.2466 L 104.838 201.2482 L 104.838 201.1301 L 104.9254 201.1317 L 104.9254 200.6567 L 104.838 200.6583 L 104.838 200.5401 L 103.9543 200.5401 L 103.9543 200.6583 L 103.7746 200.6567 L 103.7746 200.7756 L 103.5998 200.7756 L 103.5998 200.8938 L 103.5124 200.8938 L 103.5124 201.0119 L 103.425 201.0119 L 103.4226 201.1301 L 103.3352 201.1301 L 103.3352 201.2474 L 102.8933 201.2474 L 102.8933 201.1301 L 102.3617 201.1317 L 102.3617 200.8938 L 102.0922 200.8938 L 102.0922 200.7756 L 101.745 200.7756 L 101.745 200.6567 L 101.6552 200.6567 L 101.6552 200.8938 L 101.5678 200.8938 L 101.5678 201.0119 L 101.3031 201.0119 L 101.3031 201.1301 L 100.9487 201.1301 L 100.9487 201.2474 L 100.8953 201.2482 L 100.8613 201.2466 L 100.8613 201.3648 L 100.7715 201.3648 L 100.7715 201.4829 L 100.5942 201.4829 L 100.5942 201.6027 L 100.4194 201.6011 L 100.4194 201.7192 L 100.3296 201.7176 L 100.3296 201.835 L 100.1499 201.835 L 100.1499 201.9539 L 99.0065 201.9539 L 99.0065 201.835 L 98.737 201.835 L 98.737 201.7176 L 98.5622 201.7192 L 98.5622 201.6011 L 98.3849 201.6027 L 98.3849 201.4829 L 98.0329 201.4829 L 98.0329 201.3648 L 97.6785 201.3648 L 97.6785 201.2466 L 97.1468 201.2474 L 97.1468 201.1301 L 96.4403 201.1301 L 96.4403 201.0119 L 96.2631 201.0119 L 96.2631 200.8938 L 95.9984 200.8938 L 95.9984 200.7756 L 95.7338 200.7756 L 95.7338 200.6567 L 95.5566 200.6583 L 95.5566 200.5401 L 95.0273 200.541 L 95.0273 200.4228 L 94.9375 200.4228 L 94.9375 200.3047 L 94.8501 200.3047 L 94.8501 200.1857 L 94.7603 200.1873 L 94.7603 200.0692 L 94.5855 200.0708 L 94.5855 199.7147 L 94.4956 199.7155 L 94.4956 199.5974 L 94.4082 199.5974 L 94.4082 199.48 L 94.3184 199.48 L 94.3184 199.3619 L 94.1436 199.3627 L 94.1436 199.2437 L 93.9639 199.2437 L 93.9639 199.1247 L 93.7892 199.1247 L 93.7892 199.0058 L 93.5245 199.0082 L 93.5245 198.8909 L 92.9904 198.8917 L 92.9928 198.7727 L 92.6432 198.7727 L 92.6432 198.6538 L 91.8445 198.6538 L 91.8445 198.5348 L 90.5189 198.5348 L 90.5189 198.6538 L 89.9872 198.6538 L 89.9872 198.7727 L 89.7202 198.7727 L 89.7202 198.8917 L 89.458 198.8909 L 89.458 199.0082 L 89.0161 199.0058 L 89.0161 199.1247 L 88.6592 199.1247 L 88.6592 199.2437 L 88.4844 199.2437 L 88.4844 199.3627 L 88.397 199.3619 L 88.397 199.48 L 88.1324 199.48 L 88.1324 199.5974 L 88.0426 199.5974 L 88.0426 199.8337 L 87.9528 199.8337 L 87.9528 199.9567 L 87.778 199.9518 L 87.778 200.0692 L 87.6906 200.0692 L 87.6906 200.3047 L 87.6007 200.3047 L 87.6007 200.7756 L 87.5158 200.7756 L 87.5158 201.1317 L 87.4235 201.1301 L 87.4235 201.4829 L 87.5158 201.4829 L 87.5133 202.0737 L 87.6007 202.0737 L 87.6007 202.4265 L 87.6906 202.4217 L 87.6906 202.5455 L 88.3096 202.5455 L 88.3096 202.6636 L 88.2198 202.662 L 88.2198 202.8967 L 87.9528 202.8967 L 87.9528 203.0165 L 87.778 203.0165 L 87.778 203.1346 L 87.5133 203.1338 L 87.5133 203.2512 L 87.4235 203.2487 L 87.4235 203.3677 L 87.3361 203.3677 L 87.3361 203.4875 L 87.2463 203.4875 L 87.2463 203.6056 L 87.0715 203.6048 L 87.0715 203.723 L 86.9792 203.7197 L 86.9792 203.9577 L 86.5398 203.9577 L 86.5398 203.8387 L 86.2727 203.8387 L 86.2727 203.3677 L 86.1878 203.3693 L 86.1878 202.9008 L 86.1878 202.7777 L 85.9037 202.7777 L 85.7459 202.7777 L 85.7459 202.8967 L 85.6561 202.8967 L 85.6561 203.1346 L 85.4789 203.1338 L 85.4789 203.2512 L 84.952 203.2487 L 84.952 203.3677 L 84.8598 203.3677 L 84.8598 203.2487 L 84.5077 203.2487 L 84.5077 203.3677 L 84.1533 203.3677 L 84.1533 203.4875 L 83.624 203.4875 L 83.624 203.6056 L 83.3594 203.6048 L 83.3594 203.723 L 83.0025 203.7197 L 83.0025 203.8387 L 82.9175 203.8387 L 82.9175 203.9577 L 82.5631 203.9577 L 82.5631 204.0766 L 82.2985 204.0766 L 82.2985 203.9577 L 82.2062 203.9577 L 82.2062 203.8387 L 82.1212 203.8387 L 82.1212 203.7197 L 82.0338 203.723 L 82.0338 203.6048 L 81.8566 203.6056 L 81.8566 203.4875 L 81.6794 203.4875 L 81.6794 203.3677 L 81.592 203.3693 L 81.592 203.1338 L 81.6794 203.1346 L 81.6794 203.0165 L 81.7668 203.0165 L 81.7668 202.662 L 81.8566 202.6636 L 81.8566 201.9539 L 81.7668 201.9539 L 81.7668 201.7176 L 81.6794 201.7176 L 81.6794 201.4829 L 81.4147 201.4829 L 81.4147 201.3648 L 81.3249 201.3656 L 81.3249 201.1301 L 81.2375 201.1301 L 81.2375 201.0119 L 81.172 201.0119 L 81.0603 201.0119 L 81.0603 200.8938 L 80.9729 200.8938 L 80.9729 200.7756 L 80.8831 200.7756 L 80.8831 200.6567 L 80.7957 200.6583 L 80.7957 200.5401 L 80.7058 200.541 L 80.7058 200.4228 L 80.531 200.4228 L 80.531 200.3047 L 80.2615 200.3047 L 80.2615 200.1857 L 79.9993 200.1873 L 79.9993 200.0708 L 80.2785 198.0217 L 81.5313 195.0598 L 82.4077 193.4097 L 84.0707 192.2905 L 89.1812 191.2798 L 91.9562 190.0028 L 93.3497 188.2928 L 94.8962 188.0646 L 97.9674 189.2299 L 102.2597 191.1527 L 102.4515 191.0799 Z" fill="#f5fc98" fill-opacity="1" stroke="#000000" stroke-width="0.4444444562182018" paint-order="fill" stroke-opacity="1" stroke-dasharray="" stroke-linecap="butt" stroke-linejoin="miter" stroke-miterlimit="10" transform="matrix(0.8999999761581421,0,0,0.8999999761581421,39.999942779541016,26.64996337890625)" clip-path="none"/>
<path d="M -5 -5 L 61.3672 -5 L 61.3672 43 L -5 43 L -5 -5 Z" fill="rgba(255,255,255,0)" fill-opacity="0" stroke="#ccc" stroke-width="0" paint-order="fill" stroke-opacity="1" stroke-dasharray="" stroke-linecap="butt" stroke-linejoin="miter" stroke-miterlimit="10" transform="matrix(1,0,0,1,5,490)" clip-path="none"/>
<path d="M 3.5 0 L 16.5 0 A 3.5 3.5 0 0 1 20 3.5 L 20 10.5 A 3.5 3.5 0 0 1 16.5 14 L 3.5 14 A 3.5 3.5 0 0 1 0 10.5 L 0 3.5 A 3.5 3.5 0 0 1 3.5 0 Z" fill="#f5fc98" fill-opacity="1" stroke="none" transform="matrix(1,0,0,1,5,490)" clip-path="none"/>
<text transform="matrix(1,0,0,1,5,490)" fill="#333" fill-opacity="1" stroke="none" clip-path="none" style="font: 12px &quot;Microsoft YaHei&quot;;"><tspan dominant-baseline="middle" text-anchor="start" x="30" y="7">1 - 2</tspan></text>
<path d="M 3.5 0 L 16.5 0 A 3.5 3.5 0 0 1 20 3.5 L 20 10.5 A 3.5 3.5 0 0 1 16.5 14 L 3.5 14 A 3.5 3.5 0 0 1 0 10.5 L 0 3.5 A 3.5 3.5 0 0 1 3.5 0 Z" fill="#f6b9fd" fill-opacity="1" stroke="none" transform="matrix(1,0,0,1,5,514)" clip-path="none"/>
<text transform="matrix(1,0,0,1,5,514)" fill="#333" fill-opacity="1" stroke="none" clip-path="none" style="font: 12px &quot;Microsoft YaHei&quot;;"><tspan dominant-baseline="middle" text-anchor="start" x="30" y="7">1 - 1</tspan></text>
<path d="M -5 -5 L 5 -5 L 5 5 L -5 5 L -5 -5 Z" fill="none" fill-opacity="1" stroke="#ccc" stroke-width="0" paint-order="fill" stroke-opacity="1" stroke-dasharray="" stroke-linecap="butt" stroke-linejoin="miter" stroke-miterlimit="10" transform="matrix(1,0,0,1,795,266.5)" clip-path="none"/>
<path fill="rgba(255,255,255,0)" fill-opacity="0" stroke="#ccc" stroke-width="0" paint-order="fill" stroke-opacity="1" stroke-dasharray="" stroke-linecap="butt" stroke-linejoin="miter" stroke-miterlimit="10" transform="matrix(1,0,0,1,15,10)" clip-path="none"/><defs><filter id="f1" x="-100%" y="-100%" width="1000%" height="1000%"><feOffset result="offOut" in="SourceGraphic" dx="-9.799999999999999" dy="9.799999999999999"></feOffset><feColorMatrix result="matrixOut" in="offOut" type="matrix" values="0.2 0 0 0 0 0 0.2 0 0 0 0 0 0.2 0 0 0 0 0 1 0"></feColorMatrix><feGaussianBlur result="blurOut" in="matrixOut" stdDeviation="8"></feGaussianBlur><feBlend in="SourceGraphic" in2="blurOut" mode="normal"></feBlend></filter></defs>
<text transform="matrix(1 0 0 1 601.0948 309.7498)" style="font-family:'Tahoma'; font-size:14px;" class="maplabels1">Daman</text>
<text transform="matrix(1 0 0 1 164.7883 210.3192)" style="font-family:'Tahoma'; font-size:14px;" class="maplabels1">Diu</text>
</svg>